<?xml version="1.0" encoding="UTF-8" standalone="no"?>
<svg width="1400px" height="125px" viewBox="0 0 1400 125" version="1.1" xmlns="http://www.w3.org/2000/svg" xmlns:xlink="http://www.w3.org/1999/xlink">
    <!-- Generator: Sketch 50.2 (55047) - http://www.bohemiancoding.com/sketch -->
    <title>Section_Header_Art_Small</title>
    <desc>Created with Sketch.</desc>
    <defs></defs>
    <g id="Section_Header_Art_Small" stroke="none" stroke-width="1" fill="none" fill-rule="evenodd">
        <path d="M23.109375,68.6113281 C23.109375,71.4043108 22.0996195,73.5956952 20.0800781,75.1855469 C18.0605368,76.7753986 15.2747573,77.5703125 11.7226562,77.5703125 C8.17055516,77.5703125 5.26303215,77.0188857 3,75.9160156 L3,71.0605469 C4.43229883,71.7337273 5.95409351,72.2636699 7.56542969,72.6503906 C9.17676587,73.0371113 10.6770764,73.2304688 12.0664062,73.2304688 C14.1002706,73.2304688 15.6005811,72.8437539 16.5673828,72.0703125 C17.5341845,71.2968711 18.0175781,70.2584701 18.0175781,68.9550781 C18.0175781,67.7805931 17.5735721,66.7851603 16.6855469,65.96875 C15.7975216,65.1523397 13.9642066,64.1855525 11.1855469,63.0683594 C8.32094922,61.9081973 6.30143816,60.5833408 5.12695312,59.09375 C3.95246809,57.6041592 3.36523438,55.8138125 3.36523438,53.7226562 C3.36523438,51.1015494 4.29621465,49.03907 6.15820312,47.5351562 C8.0201916,46.0312425 10.5195156,45.2792969 13.65625,45.2792969 C16.6640775,45.2792969 19.6575372,45.9381445 22.6367188,47.2558594 L21.0039062,51.4453125 C18.2109235,50.2708275 15.718761,49.6835938 13.5273438,49.6835938 C11.8658771,49.6835938 10.605473,50.0452438 9.74609375,50.7685547 C8.88671445,51.4918656 8.45703125,52.4479107 8.45703125,53.6367188 C8.45703125,54.4531291 8.62890453,55.1513643 8.97265625,55.7314453 C9.31640797,56.3115263 9.88215752,56.8593724 10.6699219,57.375 C11.4576862,57.8906276 12.8756408,58.5709593 14.9238281,59.4160156 C17.2298292,60.3756558 18.9199165,61.2708292 19.9941406,62.1015625 C21.0683647,62.9322958 21.8561173,63.8704375 22.3574219,64.9160156 C22.8587265,65.9615938 23.109375,67.1933523 23.109375,68.6113281 Z M29.1894531,77.140625 L29.1894531,45.7304688 L34.3242188,45.7304688 L34.3242188,77.140625 L29.1894531,77.140625 Z M55.4648438,60.1035156 L67.0234375,60.1035156 L67.0234375,75.8730469 C65.132803,76.4889354 63.3173915,76.92578 61.5771484,77.1835938 C59.8369054,77.4414075 57.9570413,77.5703125 55.9375,77.5703125 C51.1822679,77.5703125 47.5156379,76.1631 44.9375,73.3486328 C42.3593621,70.5341656 41.0703125,66.5631767 41.0703125,61.4355469 C41.0703125,56.379532 42.524074,52.4228658 45.4316406,49.5654297 C48.3392072,46.7079935 52.3424224,45.2792969 57.4414062,45.2792969 C60.7213706,45.2792969 63.8294124,45.9094989 66.765625,47.1699219 L64.9609375,51.4453125 C62.4114456,50.2708275 59.8619919,49.6835938 57.3125,49.6835938 C53.9609207,49.6835938 51.3112077,50.7363176 49.3632812,52.8417969 C47.4153548,54.9472762 46.4414062,57.8261536 46.4414062,61.4785156 C46.4414062,65.3170765 47.3186761,68.2353416 49.0732422,70.2333984 C50.8278083,72.2314553 53.3521971,73.2304688 56.6464844,73.2304688 C58.307951,73.2304688 60.0839749,73.0227885 61.9746094,72.6074219 L61.9746094,64.5078125 L55.4648438,64.5078125 L55.4648438,60.1035156 Z M100.732422,77.140625 L94.4375,77.140625 L78.9902344,52.1113281 L78.8183594,52.1113281 L78.9257812,53.5078125 C79.1263031,56.1718883 79.2265625,58.6067598 79.2265625,60.8125 L79.2265625,77.140625 L74.5644531,77.140625 L74.5644531,45.7304688 L80.7949219,45.7304688 L96.1992188,70.6308594 L96.328125,70.6308594 C96.299479,70.3014306 96.2421879,69.1018984 96.15625,67.0322266 C96.0703121,64.9625548 96.0273438,63.3476621 96.0273438,62.1875 L96.0273438,45.7304688 L100.732422,45.7304688 L100.732422,77.140625 Z M145.076172,45.7304688 L145.076172,66.0546875 C145.076172,68.3750116 144.578455,70.4052647 143.583008,72.1455078 C142.58756,73.8857509 141.148121,75.2249302 139.264648,76.1630859 C137.381175,77.1012417 135.128919,77.5703125 132.507812,77.5703125 C128.61196,77.5703125 125.582693,76.5390728 123.419922,74.4765625 C121.257151,72.4140522 120.175781,69.578143 120.175781,65.96875 L120.175781,45.7304688 L125.332031,45.7304688 L125.332031,65.6035156 C125.332031,68.1959765 125.933588,70.1080668 127.136719,71.3398438 C128.33985,72.5716207 130.187488,73.1875 132.679688,73.1875 C137.520858,73.1875 139.941406,70.6452077 139.941406,65.5605469 L139.941406,45.7304688 L145.076172,45.7304688 Z M173.908203,55.2265625 C173.908203,58.5065268 172.833995,61.0201736 170.685547,62.7675781 C168.537099,64.5149827 165.479187,65.3886719 161.511719,65.3886719 L158.246094,65.3886719 L158.246094,77.140625 L153.111328,77.140625 L153.111328,45.7304688 L162.15625,45.7304688 C166.080749,45.7304688 169.020498,46.5325441 170.975586,48.1367188 C172.930674,49.7408934 173.908203,52.1041511 173.908203,55.2265625 Z M158.246094,61.0703125 L160.974609,61.0703125 C163.610039,61.0703125 165.543614,60.6119837 166.775391,59.6953125 C168.007168,58.7786412 168.623047,57.3463639 168.623047,55.3984375 C168.623047,53.593741 168.07162,52.2474003 166.96875,51.359375 C165.86588,50.4713497 164.147147,50.0273438 161.8125,50.0273438 L158.246094,50.0273438 L158.246094,61.0703125 Z M196.703125,77.140625 L191.611328,77.140625 L191.611328,45.7304688 L209.335938,45.7304688 L209.335938,50.0703125 L196.703125,50.0703125 L196.703125,59.8886719 L208.541016,59.8886719 L208.541016,64.25 L196.703125,64.25 L196.703125,77.140625 Z M242.916016,61.3925781 C242.916016,66.5058849 241.637708,70.4804546 239.081055,73.3164062 C236.524401,76.1523579 232.90432,77.5703125 228.220703,77.5703125 C223.479794,77.5703125 219.838229,76.1631 217.295898,73.3486328 C214.753568,70.5341656 213.482422,66.5345311 213.482422,61.3496094 C213.482422,56.1646876 214.760729,52.1829566 217.317383,49.4042969 C219.874036,46.6256371 223.522763,45.2363281 228.263672,45.2363281 C232.932966,45.2363281 236.542305,46.6471213 239.091797,49.46875 C241.641289,52.2903787 242.916016,56.2649483 242.916016,61.3925781 Z M218.939453,61.3925781 C218.939453,65.259785 219.720044,68.1923728 221.28125,70.1904297 C222.842456,72.1884866 225.155584,73.1875 228.220703,73.1875 C231.2715,73.1875 233.573885,72.1992286 235.12793,70.2226562 C236.681974,68.2460839 237.458984,65.3027539 237.458984,61.3925781 C237.458984,57.5396943 236.689135,54.6178485 235.149414,52.6269531 C233.609693,50.6360578 231.314468,49.640625 228.263672,49.640625 C225.184229,49.640625 222.860359,50.6360578 221.291992,52.6269531 C219.723625,54.6178485 218.939453,57.5396943 218.939453,61.3925781 Z M254.796875,60.3398438 L258.363281,60.3398438 C260.75522,60.3398438 262.488276,59.8958378 263.5625,59.0078125 C264.636724,58.1197872 265.173828,56.8020921 265.173828,55.0546875 C265.173828,53.278637 264.593756,52.0039101 263.433594,51.2304688 C262.273432,50.4570274 260.526053,50.0703125 258.191406,50.0703125 L254.796875,50.0703125 L254.796875,60.3398438 Z M254.796875,64.59375 L254.796875,77.140625 L249.662109,77.140625 L249.662109,45.7304688 L258.535156,45.7304688 C262.588562,45.7304688 265.589183,46.4895757 267.537109,48.0078125 C269.485036,49.5260493 270.458984,51.817693 270.458984,54.8828125 C270.458984,58.7929883 268.425151,61.5787677 264.357422,63.2402344 L273.230469,77.140625 L267.386719,77.140625 L259.867188,64.59375 L254.796875,64.59375 Z M313.986328,77.140625 L308.830078,77.140625 L308.830078,62.9824219 L294.349609,62.9824219 L294.349609,77.140625 L289.214844,77.140625 L289.214844,45.7304688 L294.349609,45.7304688 L294.349609,58.578125 L308.830078,58.578125 L308.830078,45.7304688 L313.986328,45.7304688 L313.986328,77.140625 Z M322.257812,77.140625 L322.257812,45.7304688 L327.392578,45.7304688 L327.392578,77.140625 L322.257812,77.140625 Z M353.796875,68.6113281 C353.796875,71.4043108 352.787119,73.5956952 350.767578,75.1855469 C348.748037,76.7753986 345.962257,77.5703125 342.410156,77.5703125 C338.858055,77.5703125 335.950532,77.0188857 333.6875,75.9160156 L333.6875,71.0605469 C335.119799,71.7337273 336.641594,72.2636699 338.25293,72.6503906 C339.864266,73.0371113 341.364576,73.2304688 342.753906,73.2304688 C344.787771,73.2304688 346.288081,72.8437539 347.254883,72.0703125 C348.221685,71.2968711 348.705078,70.2584701 348.705078,68.9550781 C348.705078,67.7805931 348.261072,66.7851603 347.373047,65.96875 C346.485022,65.1523397 344.651707,64.1855525 341.873047,63.0683594 C339.008449,61.9081973 336.988938,60.5833408 335.814453,59.09375 C334.639968,57.6041592 334.052734,55.8138125 334.052734,53.7226562 C334.052734,51.1015494 334.983715,49.03907 336.845703,47.5351562 C338.707692,46.0312425 341.207016,45.2792969 344.34375,45.2792969 C347.351578,45.2792969 350.345037,45.9381445 353.324219,47.2558594 L351.691406,51.4453125 C348.898424,50.2708275 346.406261,49.6835938 344.214844,49.6835938 C342.553377,49.6835938 341.292973,50.0452438 340.433594,50.7685547 C339.574214,51.4918656 339.144531,52.4479107 339.144531,53.6367188 C339.144531,54.4531291 339.316405,55.1513643 339.660156,55.7314453 C340.003908,56.3115263 340.569658,56.8593724 341.357422,57.375 C342.145186,57.8906276 343.563141,58.5709593 345.611328,59.4160156 C347.917329,60.3756558 349.607417,61.2708292 350.681641,62.1015625 C351.755865,62.9322958 352.543617,63.8704375 353.044922,64.9160156 C353.546226,65.9615938 353.796875,67.1933523 353.796875,68.6113281 Z M370.726562,77.140625 L365.591797,77.140625 L365.591797,50.1347656 L356.353516,50.1347656 L356.353516,45.7304688 L379.964844,45.7304688 L379.964844,50.1347656 L370.726562,50.1347656 L370.726562,77.140625 Z M412.664062,61.3925781 C412.664062,66.5058849 411.385755,70.4804546 408.829102,73.3164062 C406.272448,76.1523579 402.652367,77.5703125 397.96875,77.5703125 C393.227841,77.5703125 389.586276,76.1631 387.043945,73.3486328 C384.501615,70.5341656 383.230469,66.5345311 383.230469,61.3496094 C383.230469,56.1646876 384.508776,52.1829566 387.06543,49.4042969 C389.622083,46.6256371 393.27081,45.2363281 398.011719,45.2363281 C402.681013,45.2363281 406.290352,46.6471213 408.839844,49.46875 C411.389336,52.2903787 412.664062,56.2649483 412.664062,61.3925781 Z M388.6875,61.3925781 C388.6875,65.259785 389.468091,68.1923728 391.029297,70.1904297 C392.590503,72.1884866 394.903631,73.1875 397.96875,73.1875 C401.019547,73.1875 403.321932,72.1992286 404.875977,70.2226562 C406.430021,68.2460839 407.207031,65.3027539 407.207031,61.3925781 C407.207031,57.5396943 406.437182,54.6178485 404.897461,52.6269531 C403.35774,50.6360578 401.062515,49.640625 398.011719,49.640625 C394.932276,49.640625 392.608406,50.6360578 391.040039,52.6269531 C389.471672,54.6178485 388.6875,57.5396943 388.6875,61.3925781 Z M424.544922,60.3398438 L428.111328,60.3398438 C430.503267,60.3398438 432.236323,59.8958378 433.310547,59.0078125 C434.384771,58.1197872 434.921875,56.8020921 434.921875,55.0546875 C434.921875,53.278637 434.341803,52.0039101 433.181641,51.2304688 C432.021479,50.4570274 430.2741,50.0703125 427.939453,50.0703125 L424.544922,50.0703125 L424.544922,60.3398438 Z M424.544922,64.59375 L424.544922,77.140625 L419.410156,77.140625 L419.410156,45.7304688 L428.283203,45.7304688 C432.336609,45.7304688 435.33723,46.4895757 437.285156,48.0078125 C439.233083,49.5260493 440.207031,51.817693 440.207031,54.8828125 C440.207031,58.7929883 438.173197,61.5787677 434.105469,63.2402344 L442.978516,77.140625 L437.134766,77.140625 L429.615234,64.59375 L424.544922,64.59375 Z M456.40625,60.0605469 L463.839844,45.7304688 L469.425781,45.7304688 L458.962891,64.9589844 L458.962891,77.140625 L453.806641,77.140625 L453.806641,65.1308594 L443.386719,45.7304688 L448.972656,45.7304688 L456.40625,60.0605469 Z M477.396484,67.6015625 L473.658203,67.6015625 L472.541016,45.7304688 L478.492188,45.7304688 L477.396484,67.6015625 Z M472.283203,74.4550781 C472.283203,73.395177 472.562497,72.589521 473.121094,72.0380859 C473.67969,71.4866509 474.474604,71.2109375 475.505859,71.2109375 C476.522792,71.2109375 477.303383,71.497393 477.847656,72.0703125 C478.39193,72.643232 478.664062,73.438146 478.664062,74.4550781 C478.664062,75.4720103 478.388349,76.2776663 477.836914,76.8720703 C477.285479,77.4664743 476.508469,77.7636719 475.505859,77.7636719 C474.488927,77.7636719 473.697594,77.4772164 473.131836,76.9042969 C472.566078,76.3313773 472.283203,75.5149793 472.283203,74.4550781 Z" id="SIGN-UP-FOR-HISTORY!" fill="#FFFFFF"></path>
    </g>
</svg>